# xmcd CD database file
#
# Track frame offsets:
#	150
#	14143
#	37083
#	54504
#	77916
#	98722
#	119295
#	136177
#	152206
#	169487
#	190924
#	210436
#	233199
#	251100
#
# Disc length: 3609 seconds
#
# Revision: 0
# Processed by: cddbd v1.5.1PL0 Copyright (c) Steve Scherf et al.
# Submitted via: CDex 1.51
#
DISCID=c50e170e
DTITLE=Stacey Knights - While You Dream
DYEAR=2004
DGENRE=Jazz
TTITLE0=Morning Monk
TTITLE1=I Can't Tell You Why
TTITLE2=Jamesby
TTITLE3=You Put Me In The Mood
TTITLE4=Southwest Shuffle
TTITLE5=While You Dream
TTITLE6=What's It Pay
TTITLE7=Doin Nothin With You
TTITLE8=Remember When
TTITLE9=24 Track Mind
TTITLE10=Palma De Mallorca
TTITLE11=I'm Sorry
TTITLE12=Skyline Drive
TTITLE13=Goosby Strut
EXTD=YEAR: 2004
EXTT0=
EXTT1=
EXTT2=
EXTT3=
EXTT4=
EXTT5=
EXTT6=
EXTT7=
EXTT8=
EXTT9=
EXTT10=
EXTT11=
EXTT12=
EXTT13=
PLAYORDER=
